<svg width="20" height="20" viewBox="0 0 20 20" fill="none" xmlns="http://www.w3.org/2000/svg">
<path d="M4.91909 20C3.40885 20 2.20065 19.3827 1.2945 18.1481C0.431499 16.8642 0 15.2099 0 13.1852C0 10.4198 0.647249 7.92592 1.94175 5.7037C3.2794 3.4321 5.30744 1.53086 8.02589 0L8.73786 1.18518C7.44336 2.07407 6.25674 3.33333 5.17799 4.96296C4.14239 6.54321 3.6246 8.14815 3.6246 9.77778C3.6246 10.2222 3.73247 10.5926 3.94822 10.8889C4.16397 11.1358 4.48759 11.2593 4.91909 11.2593C5.99784 11.2593 6.90399 11.7037 7.63754 12.5926C8.41424 13.4321 8.80259 14.4691 8.80259 15.7037C8.80259 16.9383 8.41424 17.9753 7.63754 18.8148C6.90399 19.6049 5.99784 20 4.91909 20ZM16.1165 20C14.6063 20 13.3981 19.3827 12.4919 18.1481C11.6289 16.8642 11.1974 15.2099 11.1974 13.1852C11.1974 10.4198 11.8447 7.92592 13.1392 5.7037C14.4768 3.4321 16.5049 1.53086 19.2233 0L19.9353 1.18518C18.6408 2.07407 17.4542 3.33333 16.3754 4.96296C15.3398 6.54321 14.822 8.14815 14.822 9.77778C14.822 10.2222 14.9299 10.5926 15.1456 10.8889C15.3614 11.1358 15.685 11.2593 16.1165 11.2593C17.1953 11.2593 18.1014 11.7037 18.835 12.5926C19.6116 13.4321 20 14.4691 20 15.7037C20 16.9383 19.6116 17.9753 18.835 18.8148C18.1014 19.6049 17.1953 20 16.1165 20Z" fill="#AFD3BD"/>
</svg>
