<svg width="20" height="20" viewBox="0 0 20 20" fill="none" xmlns="http://www.w3.org/2000/svg">
<path d="M15.9987 7.3C15.9987 3.82061 13.3148 1 10.004 1C6.69323 1 3.8148 3.82662 4.00932 7.3C4.22462 11.1445 6.67472 10.8 6.67472 15.7C6.67472 16.8598 8.15669 17.2 9.99601 17.2C11.8353 17.2 13.3356 16.8598 13.3356 15.7M4.00133 7.3C4.00133 3.82061 6.68524 1 9.99601 1C13.3068 1 16.1852 3.82662 15.9907 7.3C15.7754 11.1445 13.3253 10.8 13.3253 15.7M6.67471 13.8H13.3355M6.67471 8C6.67471 6.6 7.20757 4.5 9.33901 4.5" stroke="#B4BFC6" stroke-width="1.5" stroke-linecap="round"/>
</svg>
