<svg width="107" height="18" viewBox="0 0 107 18" fill="none" xmlns="http://www.w3.org/2000/svg">
<path d="M13.2951 0.502432V6.7336H11.9532V0.58181H9.00484V17.1519H11.9532V9.90871H13.2951V17.4496H16.2812V0.502432H13.2951ZM3.61844 13.699V0.859632H0.5V16.6558H4.20433C5.56511 16.6558 7.28497 16.4772 8.24886 16.0605V13.1235C7.26607 13.5006 5.7541 13.699 4.48783 13.699H3.61844Z" fill="#3A3E41"/>
<path d="M33.8185 0.502432H30.6244V8.79742H33.8185V0.502432ZM23.4992 0.522277C20.3241 0.522277 18.3018 2.18921 18.3018 4.63008C18.3018 7.0908 20.3241 8.73789 23.4992 8.73789C26.6744 8.73789 28.6967 7.0908 28.6967 4.63008C28.6967 2.18921 26.6744 0.522277 23.4992 0.522277ZM23.4992 3.16159C24.7277 3.16159 25.5404 3.73708 25.5404 4.63008C25.5404 5.52308 24.7277 6.09857 23.4992 6.09857C22.2708 6.09857 21.4581 5.52308 21.4581 4.63008C21.4581 3.73708 22.2708 3.16159 23.4992 3.16159ZM33.8185 9.39275H19.5492V11.7146H30.6622V12.3893H19.587V17.4496H33.9886V15.1278H22.7433V14.4531H33.8185V9.39275Z" fill="#3A3E41"/>
<path d="M49.2767 0.502432V6.7336H47.9349V0.58181H44.9865V17.1519H47.9349V9.90871H49.2767V17.4496H52.2629V0.502432H49.2767ZM40.9042 5.90013H39.3922V0.899322H36.4817V16.6558H43.8147V0.899322H40.9042V5.90013ZM39.3922 13.6395V8.89664H40.9042V13.6395H39.3922Z" fill="#3A3E41"/>
<path d="M62.3537 7.13049C66.6061 7.13049 69.7245 6.11842 69.7245 3.67755C69.7245 1.23668 66.6061 0.224609 62.3537 0.224609C58.1013 0.224609 54.9828 1.23668 54.9828 3.67755C54.9828 6.11842 58.1013 7.13049 62.3537 7.13049ZM62.3537 2.74486C64.7728 2.74486 66.3226 3.04252 66.3226 3.67755C66.3226 4.33241 64.7728 4.61024 62.3537 4.61024C59.9345 4.61024 58.3847 4.33241 58.3847 3.67755C58.3847 3.04252 59.9345 2.74486 62.3537 2.74486ZM70.5183 10.2659V7.68613H54.189V10.2659H60.7661V11.1986H55.134V17.4496H69.5733V11.1986H63.9412V10.2659H70.5183ZM66.4171 14.9294H58.2902V13.7188H66.4171V14.9294Z" fill="#3A3E41"/>
<path d="M85.2584 0.502432V3.51879H83.9166V0.58181H80.9682V10.0079H83.9166V6.61453H85.2584V10.1865H88.2446V0.502432H85.2584ZM79.7964 4.0149V0.700878H72.3689V3.18144H76.8481V4.13397H72.3689V6.53515H76.111C75.4306 7.28924 74.2399 7.64644 72.3689 7.68613V10.1865C76.6969 10.1865 79.7964 7.96395 79.7964 4.0149ZM73.3895 17.4496H88.2446V10.7819H73.3895V17.4496ZM76.5457 13.4609H85.0883V14.7706H76.5457V13.4609Z" fill="#1F8648"/>
<path d="M105.763 8.38069H103.306V3.99506H105.593V0.899322H91.0779V3.99506H93.3647V8.38069H90.9078V11.4566H105.763V8.38069ZM96.5777 3.99506H100.093V8.38069H96.5777V3.99506ZM90.1707 13.7188V16.8543H106.5V13.7188H90.1707Z" fill="#1F8648"/>
</svg>
