<svg width="100" height="17" viewBox="0 0 100 17" fill="none" xmlns="http://www.w3.org/2000/svg">
<path d="M12.0708 0.486706V6.36516H10.8049V0.561591H8.02343V16.1938H10.8049V9.36055H12.0708V16.4746H14.8879V0.486706H12.0708ZM2.94193 12.9363V0.823688H0V15.7258H3.49465C4.7784 15.7258 6.40092 15.5573 7.31024 15.1641V12.3934C6.38309 12.7491 4.9567 12.9363 3.7621 12.9363H2.94193Z" fill="#F2F6F8"/>
<path d="M31.4325 0.486706H28.4193V8.31217H31.4325V0.486706ZM21.6974 0.505428C18.702 0.505428 16.7942 2.07801 16.7942 4.38071C16.7942 6.70214 18.702 8.256 21.6974 8.256C24.6928 8.256 26.6006 6.70214 26.6006 4.38071C26.6006 2.07801 24.6928 0.505428 21.6974 0.505428ZM21.6974 2.99535C22.8563 2.99535 23.623 3.53826 23.623 4.38071C23.623 5.22317 22.8563 5.76608 21.6974 5.76608C20.5385 5.76608 19.7718 5.22317 19.7718 4.38071C19.7718 3.53826 20.5385 2.99535 21.6974 2.99535ZM31.4325 8.8738H17.971V11.0642H28.4549V11.7007H18.0066V16.4746H31.593V14.2842H20.9842V13.6477H31.4325V8.8738Z" fill="#F2F6F8"/>
<path d="M46.0158 0.486706V6.36516H44.7499V0.561591H41.9684V16.1938H44.7499V9.36055H46.0158V16.4746H48.8329V0.486706H46.0158ZM38.1172 5.57887H36.6908V0.861131H33.945V15.7258H40.863V0.861131H38.1172V5.57887ZM36.6908 12.8801V8.40577H38.1172V12.8801H36.6908Z" fill="#F2F6F8"/>
<path d="M58.3525 6.73959C62.3642 6.73959 65.3062 5.78481 65.3062 3.4821C65.3062 1.17939 62.3642 0.224609 58.3525 0.224609C54.3408 0.224609 51.3989 1.17939 51.3989 3.4821C51.3989 5.78481 54.3408 6.73959 58.3525 6.73959ZM58.3525 2.6022C60.6347 2.6022 62.0968 2.88302 62.0968 3.4821C62.0968 4.0999 60.6347 4.36199 58.3525 4.36199C56.0703 4.36199 54.6082 4.0999 54.6082 3.4821C54.6082 2.88302 56.0703 2.6022 58.3525 2.6022ZM66.055 9.69753V7.26378H50.65V9.69753H56.8548V10.5774H51.5415V16.4746H65.1635V10.5774H59.8502V9.69753H66.055ZM62.1859 14.097H54.5191V12.955H62.1859V14.097Z" fill="#F2F6F8"/>
<path d="M79.9608 0.486706V3.33233H78.6949V0.561591H75.9134V9.45416H78.6949V6.25283H79.9608V9.62265H82.7779V0.486706H79.9608ZM74.8079 3.80036V0.673919H67.8008V3.01407H72.0265V3.91269H67.8008V6.17795H71.3311C70.6892 6.88936 69.566 7.22634 67.8008 7.26378V9.62265C71.8839 9.62265 74.8079 7.52588 74.8079 3.80036ZM68.7636 16.4746H82.7779V10.1843H68.7636V16.4746ZM71.7412 12.7116H79.8003V13.9472H71.7412V12.7116Z" fill="#67AD82"/>
<path d="M99.3046 7.91902H96.9867V3.78164H99.1442V0.861131H85.4508V3.78164H87.6082V7.91902H85.2904V10.8208H99.3046V7.91902ZM90.6393 3.78164H93.9557V7.91902H90.6393V3.78164ZM84.595 12.955V15.913H100V12.955H84.595Z" fill="#67AD82"/>
</svg>
