<svg width="120" height="68" viewBox="0 0 120 68" fill="none" xmlns="http://www.w3.org/2000/svg">
<g clip-path="url(#clip0_1320_6536)">
<g clip-path="url(#clip1_1320_6536)">
<path d="M80.0221 30.5693V31.1486H80.5813V31.7268H81.1405V32.3061H81.6997V32.8854H81.1405V33.4652H80.5813V34.0445H80.0221V34.6238H78.9037V34.0456H79.4629V33.4664H80.0221V32.8865H80.5813V32.3072H80.0221V31.7268H79.4629V31.1486H78.9037V30.5693H80.0221Z" fill="#E8344E"/>
<path d="M78.2328 30.6201H77.2587V31.1788H76.7085V31.7481H76.1867V32.3074H75.6365V32.8761H75.1153V33.4354H74.5651V34.0047H74.0439V34.5734H75.0181V34.0047H75.5392V33.4454H76.09V32.8761H76.6106V32.3174H77.1614V31.7481H77.682V31.1888H78.2328V30.6201Z" fill="#E8344E"/>
<path d="M68.0483 34.6249V34.0456H67.4892V33.4664H66.93V32.8865H66.3708V32.3072H66.93V31.7268H67.4892V31.1486H68.0483V30.5693H69.1667V31.1486H68.6075V31.7268H68.0483V32.3061H67.4892V32.8854H68.0483V33.4652H68.6075V34.0445H69.1667V34.6238L68.0483 34.6249Z" fill="#E8344E"/>
<path d="M82.208 2.42871L31.4015 12.2789L27.6192 24.5413L36.1753 34.2915L69.8299 27.7697L71.7076 34.8096L80.2548 25.7494L86.9812 24.4457L90.7636 12.1788L82.208 2.42871Z" fill="#E8344E"/>
<path d="M34.4636 21.8054V20.6668H33.4012V19.5282H35.6441L35.7 20.6668H38.6525V18.3874H34.4636V17.2511H33.4571V14.9717H34.4636V13.8359H39.9509V14.9745H40.9575V16.1131H38.7151V14.9745H35.7022V17.2539H39.952V18.3897H40.9586V20.669H39.952V21.8076L34.4636 21.8054Z" fill="white"/>
<path d="M51.5608 21.8054V16.1131H52.3481V14.9745H53.4933V13.8359H56.929V14.9745H58.0736V16.1131H58.8615V21.8054H56.929V19.526H53.4933V21.8054H51.5608ZM53.4933 18.3897H56.929V16.1103H55.7838V14.9745H54.6385V16.1131H53.4933V18.3897Z" fill="white"/>
<path d="M77.9962 21.8054V16.1131H78.7847V14.9745H79.9293V13.8359H83.3644V14.9745H84.5096V16.1131H85.2969V21.8054H83.3644V19.526H79.9288V21.8054H77.9962ZM79.9288 18.3897H83.3644V16.1103H82.2192V14.9745H81.0773V16.1131H79.9288V18.3897Z" fill="white"/>
<path d="M72.1936 21.8054V14.9745H69.7818V13.8359H76.6531V14.9745H74.3045V21.8054H72.1936Z" fill="white"/>
<path d="M49.2038 14.9745V13.8359H43.7982V14.9845H42.9823V21.8054H44.7941V18.3719H49.2038V17.2333H49.8994V14.9745H49.2038ZM48.119 17.2333H44.7941V14.9745H48.1162L48.119 17.2333Z" fill="white"/>
<path d="M67.4232 20.6668V19.5282H66.278V18.2118H67.3555V17.225H68.2105V14.9745H67.4232V13.8359H61.9096V14.9845H61.0859V21.8054H62.9598V18.3902H64.2789V19.6628H65.2502V20.6579H66.2869L66.2797 21.8054H68.5695V20.6668H67.4232ZM62.9598 17.2522V14.9728H66.2797V16.112L66.2869 17.2505L62.9598 17.2522Z" fill="white"/>
</g>
<path d="M14.4445 46.4574V53.8899H12.9396V46.552H9.63324V66.317H12.9396V57.6772H14.4445V66.672H17.7933V46.4574H14.4445ZM3.59268 62.1983V46.8834H0.09552V65.7252H4.24973C5.77576 65.7252 7.7045 65.5122 8.78544 65.0151V61.5118C7.6833 61.9616 5.98771 62.1983 4.56765 62.1983H3.59268Z" fill="#141617"/>
<path d="M37.4604 46.4574H33.8784V56.3517H37.4604V46.4574ZM25.8879 46.481C22.3272 46.481 20.0593 48.4694 20.0593 51.3808C20.0593 54.316 22.3272 56.2806 25.8879 56.2806C29.4487 56.2806 31.7165 54.316 31.7165 51.3808C31.7165 48.4694 29.4487 46.481 25.8879 46.481ZM25.8879 49.6292C27.2656 49.6292 28.177 50.3157 28.177 51.3808C28.177 52.446 27.2656 53.1325 25.8879 53.1325C24.5103 53.1325 23.5989 52.446 23.5989 51.3808C23.5989 50.3157 24.5103 49.6292 25.8879 49.6292ZM37.4604 57.0618H21.4582V59.8312H33.9208V60.636H21.5006V66.672H37.6511V63.9026H25.0401V63.0978H37.4604V57.0618Z" fill="#141617"/>
<path d="M54.796 46.4574V53.8899H53.2911V46.552H49.9847V66.317H53.2911V57.6772H54.796V66.672H58.1448V46.4574H54.796ZM45.4066 52.8958H43.711V46.9308H40.447V65.7252H48.6707V46.9308H45.4066V52.8958ZM43.711 62.1273V56.47H45.4066V62.1273H43.711Z" fill="#141617"/>
<path d="M69.4611 54.3633C74.2299 54.3633 77.7271 53.1561 77.7271 50.2447C77.7271 47.3332 74.2299 46.126 69.4611 46.126C64.6922 46.126 61.195 47.3332 61.195 50.2447C61.195 53.1561 64.6922 54.3633 69.4611 54.3633ZM69.4611 49.1321C72.174 49.1321 73.912 49.4872 73.912 50.2447C73.912 51.0258 72.174 51.3572 69.4611 51.3572C66.7481 51.3572 65.0101 51.0258 65.0101 50.2447C65.0101 49.4872 66.7481 49.1321 69.4611 49.1321ZM78.6173 58.1033V55.0261H60.3048V58.1033H67.6807V59.2158H61.3646V66.672H77.5575V59.2158H71.2414V58.1033H78.6173ZM74.018 63.6659H64.9041V62.2219H74.018V63.6659Z" fill="#141617"/>
<path d="M95.1475 46.4574V50.0553H93.6427V46.552H90.3362V57.7956H93.6427V53.7479H95.1475V58.0086H98.4963V46.4574H95.1475ZM89.0222 50.6471V46.6941H80.6925V49.6529H85.7157V50.7891H80.6925V53.6532H84.8891C84.1261 54.5527 82.7908 54.9788 80.6925 55.0261V58.0086C85.5462 58.0086 89.0222 55.3575 89.0222 50.6471ZM81.8371 66.672H98.4963V58.7187H81.8371V66.672ZM85.3766 61.9142H94.9567V63.4765H85.3766V61.9142Z" fill="#141617"/>
<path d="M118.142 55.8546H115.387V50.6234H117.951V46.9308H101.674V50.6234H104.238V55.8546H101.483V59.5235H118.142V55.8546ZM107.841 50.6234H111.784V55.8546H107.841V50.6234ZM100.656 62.2219V65.9619H118.969V62.2219H100.656Z" fill="#141617"/>
</g>
<defs>
<clipPath id="clip0_1320_6536">
<rect width="119.809" height="68" fill="white" transform="translate(0.09552)"/>
</clipPath>
<clipPath id="clip1_1320_6536">
<rect width="63.3539" height="32.3809" fill="white" transform="translate(27.6192 2.42871)"/>
</clipPath>
</defs>
</svg>
