<svg xmlns="http://www.w3.org/2000/svg" width="62" height="33" viewBox="0 0 62 33" fill="none">
    <g clip-path="url(#clip0_1680_17135)">
        <path d="M50.5271 28.2544V28.8154H51.061V29.3754H51.5948V29.9365H52.1287V30.4975H51.5948V31.0591H51.061V31.6201H50.5271V32.1812H49.4595V31.6212H49.9933V31.0602H50.5271V30.4986H51.061V29.9375H50.5271V29.3754H49.9933V28.8154H49.4595V28.2544H50.5271Z" fill="#E8344E"/>
        <path d="M48.8193 28.304H47.8893V28.8451H47.3641V29.3964H46.866V29.9381H46.3407V30.4889H45.8431V31.0306H45.3178V31.5819H44.8203V32.1328H45.7503V31.5819H46.2478V31.0403H46.7736V30.4889H47.2706V29.9478H47.7965V29.3964H48.2935V28.8548H48.8193V28.304Z" fill="#E8344E"/>
        <path d="M39.0966 32.1823V31.6212H38.5628V31.0602H38.029V30.4986H37.4951V29.9375H38.029V29.3754H38.5628V28.8154H39.0966V28.2544H40.1643V28.8154H39.6305V29.3754H39.0966V29.9365H38.5628V30.4975H39.0966V31.0591H39.6305V31.6201H40.1643V32.1812L39.0966 32.1823Z" fill="#E8344E"/>
        <path d="M52.6143 1L4.11088 10.54L0.5 22.4162L8.66824 31.8592L40.7972 25.5429L42.5899 32.361L50.7496 23.5862L57.1711 22.3236L60.782 10.443L52.6143 1Z" fill="#E8344E"/>
        <path d="M7.03431 19.7665V18.6638H6.02002V17.5611H8.16124L8.21462 18.6638H11.0333V16.4562H7.03431V15.3557H6.0734V13.1481H7.03431V12.0481H12.2729V13.1508H13.2338V14.2535H11.0931V13.1508H8.21676V15.3584H12.2739V16.4584H13.2348V18.666H12.2739V19.7687L7.03431 19.7665Z" fill="white"/>
        <path d="M23.3564 19.7665V14.2535H24.1081V13.1508H25.2014V12.0481H28.4813V13.1508H29.574V14.2535H30.3262V19.7665H28.4813V17.559H25.2014V19.7665H23.3564ZM25.2014 16.4584H28.4813V14.2508H27.388V13.1508H26.2947V14.2535H25.2014V16.4584Z" fill="white"/>
        <path d="M48.5938 19.7665V14.2535H49.3465V13.1508H50.4392V12.0481H53.7186V13.1508H54.8119V14.2535H55.5635V19.7665H53.7186V17.559H50.4387V19.7665H48.5938ZM50.4387 16.4584H53.7186V14.2508H52.6253V13.1508H51.5352V14.2535H50.4387V16.4584Z" fill="white"/>
        <path d="M43.0539 19.7665V13.1508H40.7515V12.0481H47.3113V13.1508H45.0691V19.7665H43.0539Z" fill="white"/>
        <path d="M21.1065 13.1508V12.0481H15.9459V13.1605H15.167V19.7665H16.8966V16.4412H21.1065V15.3385H21.7706V13.1508H21.1065ZM20.0708 15.3385H16.8966V13.1508H20.0681L20.0708 15.3385Z" fill="white"/>
        <path d="M38.5002 18.6638V17.5611H37.4069V16.2861H38.4356V15.3304H39.2518V13.1508H38.5002V12.0481H33.2365V13.1605H32.4502V19.7665H34.2391V16.4589H35.4984V17.6914H36.4257V18.6552H37.4154L37.4085 19.7665H39.5945V18.6638H38.5002ZM34.2391 15.3568V13.1492H37.4085V14.2524L37.4154 15.3552L34.2391 15.3568Z" fill="white"/>
    </g>
    <defs>
        <clipPath id="clip0_1680_17135">
            <rect width="61" height="33" fill="white" transform="translate(0.5)"/>
        </clipPath>
    </defs>
</svg>