<svg xmlns="http://www.w3.org/2000/svg" width="36" height="36" viewBox="0 0 36 36" fill="none">
    <path fill-rule="evenodd" clip-rule="evenodd" d="M18 3.00024C9.71573 3.00024 3 9.71597 3 18.0002C3 26.2845 9.71573 33.0002 18 33.0002C26.2843 33.0002 33 26.2845 33 18.0002C33 9.71597 26.2843 3.00024 18 3.00024ZM19.3422 12.9505C18.6471 12.6414 17.7561 12.5676 16.9026 12.8521C15.7223 13.2456 15.4219 14.3241 15.4219 14.7835C15.4219 15.4048 14.9182 15.9085 14.2969 15.9085C13.6756 15.9085 13.1719 15.4048 13.1719 14.7835C13.1719 13.7428 13.7715 11.5241 16.1911 10.7176C17.5876 10.2521 19.0581 10.3618 20.2563 10.8945C21.4477 11.4242 22.4727 12.4289 22.75 13.8141C22.9583 14.8544 22.7466 15.7 22.3303 16.3939C22.0089 16.9295 21.5547 17.3754 21.2333 17.6909C21.1829 17.7403 21.1358 17.7866 21.093 17.8295C20.8637 18.0591 20.588 18.2781 20.3612 18.4583L20.322 18.4895C20.0667 18.6924 19.8463 18.8698 19.6526 19.0586C19.2699 19.4317 19.125 19.7207 19.125 20.0335C19.125 20.6548 18.6213 21.1585 18 21.1585C17.3787 21.1585 16.875 20.6548 16.875 20.0335C16.875 18.8462 17.5039 18.0111 18.0822 17.4474C18.369 17.1678 18.676 16.9236 18.9217 16.7283C19.1889 16.5158 19.3688 16.3719 19.5008 16.2397C19.5652 16.1752 19.6261 16.1148 19.6837 16.0576C20.0146 15.7291 20.2385 15.5069 20.401 15.2362C20.5471 14.9926 20.6355 14.714 20.5438 14.2558C20.4441 13.7579 20.0441 13.2625 19.3422 12.9505ZM17.9941 23.0554C17.2693 23.0554 16.6816 23.643 16.6816 24.3679C16.6816 25.0928 17.2693 25.6804 17.9941 25.6804C18.719 25.6804 19.3066 25.0928 19.3066 24.3679C19.3066 23.643 18.719 23.0554 17.9941 23.0554Z" fill="#31B32E"/>
</svg>